<svg height="464pt" viewBox="0 0 464 464" width="464pt" xmlns="http://www.w3.org/2000/svg"><path d="m208 80h40v32l37.105469-32h50.894531c8.839844 0 16-7.160156 16-16v-48c0-8.839844-7.160156-16-16-16h-128c-8.839844 0-16 7.160156-16 16v48c0 8.839844 7.160156 16 16 16zm112-48h16v16h-16zm-80 0h64v16h-64zm-32 0h16v16h-16zm0 0"/><path d="m296 400v64h47.160156l-6.398437-64zm0 0"/><path d="m296 368v16h80c22.054688 0 40-17.945312 40-40v-88h-16v72c0 22.054688-17.945312 40-40 40zm0 0"/><path d="m72 352h24v16h-24v80h-72v16h91.054688l16-32h137.890624l16 32h19.054688v-96h-168v-16h168v-16h-208zm0 0"/><path d="m368 224.96875c0-4.945312-4.023438-8.96875-8.96875-8.96875-2.359375 0-4.671875.953125-6.34375 2.625l-53.375 53.375h-75.3125c-4.414062 0-8 3.585938-8 8s3.585938 8 8 8h84.6875l56.6875-56.6875c1.671875-1.671875 2.625-3.984375 2.625-6.34375zm0 0"/><path d="m320 152v16c0 17.648438 14.351562 32 32 32s32-14.351562 32-32v-16c0-17.648438-14.351562-32-32-32s-32 14.351562-32 32zm0 0"/><path d="m296 352h64c13.230469 0 24-10.769531 24-24v-99.054688c0-.578124-.160156-1.113281-.230469-1.664062-.546875 5.75-2.984375 11.246094-7.082031 15.34375l-56.6875 56.6875v36.6875h-24zm0 0"/><path d="m116.945312 448-8 16h134.109376l-8-16zm0 0"/><path d="m56 304h248v16h-248zm0 0"/><path d="m200 280c0-13.230469 10.769531-24 24-24h7.648438c-.855469-6.199219-5.128907-11.527344-11.257813-13.28125l-32.957031-9.414062c-4.632813 6.046874-13.664063 14.695312-27.433594 14.695312s-22.800781-8.648438-27.441406-14.703125l-32.957032 9.414063c-6.824218 1.960937-11.601562 8.28125-11.601562 15.394531v29.894531h113.472656c-.898437-2.511719-1.472656-5.183594-1.472656-8zm0 0"/><path d="m160 200c17.648438 0 32-14.351562 32-32v-16c0-17.648438-14.351562-32-32-32s-32 14.351562-32 32v16c0 17.648438 14.351562 32 32 32zm0 0"/><path d="m144 213.199219v8.59375c1.984375 3.0625 7.496094 10.207031 16 10.207031s14.015625-7.144531 16-10.207031v-8.59375c-5.015625 1.777343-10.382812 2.800781-16 2.800781s-10.984375-1.023438-16-2.800781zm0 0"/><path d="m373.558594 448-4.796875-48h-15.921875l6.398437 64h104.761719v-16zm0 0"/></svg>